HIERARCHY
ROOT newVegas:Hips
{
	OFFSET 0.000000 96.479958 0.000000
	CHANNELS 6 Xposition Yposition Zposition Xrotation Yrotation Zrotation
	JOINT newVegas:Pelvis
	{
		OFFSET 0.000000 0.000000 0.000000
		CHANNELS 3 Xrotation Yrotation Zrotation
		JOINT newVegas:LeftUpLeg
		{
			OFFSET 18.735201 -5.666702 -4.541200
			CHANNELS 3 Xrotation Yrotation Zrotation
			JOINT newVegas:LeftLeg
			{
				OFFSET -0.021200 -31.938179 0.493100
				CHANNELS 3 Xrotation Yrotation Zrotation
				JOINT newVegas:LeftFoot
				{
					OFFSET 0.021200 -31.938179 -4.336299
					CHANNELS 3 Xrotation Yrotation Zrotation
					JOINT newVegas:LeftToeBase
					{
						OFFSET 0.943001 -26.722000 15.023500
						CHANNELS 3 Xrotation Yrotation Zrotation
						End Site
						{
							OFFSET 0.000000 30.670183 0.000000
						}
					}
				}
				JOINT newVegas:Left_PantLeg
				{
					OFFSET 0.663870 -9.044666 -1.108900
					CHANNELS 3 Xrotation Yrotation Zrotation
					End Site
					{
						OFFSET 1.415995 20.635357 0.000000
					}
				}
			}
		}
		JOINT newVegas:RightUpLeg
		{
			OFFSET -18.735201 -5.666702 -4.541200
			CHANNELS 3 Xrotation Yrotation Zrotation
			JOINT newVegas:RightLeg
			{
				OFFSET 0.018946 -31.938133 0.493100
				CHANNELS 3 Xrotation Yrotation Zrotation
				JOINT newVegas:RightFoot
				{
					OFFSET -0.018946 -31.938126 -4.336299
					CHANNELS 3 Xrotation Yrotation Zrotation
					JOINT newVegas:RightToeBase
					{
						OFFSET -0.943001 -26.722004 15.023500
						CHANNELS 3 Xrotation Yrotation Zrotation
						End Site
						{
							OFFSET 0.000000 30.670187 0.000000
						}
					}
				}
				JOINT newVegas:Right_PantLeg
				{
					OFFSET -0.661674 -9.044716 -1.108900
					CHANNELS 3 Xrotation Yrotation Zrotation
					End Site
					{
						OFFSET -1.415958 20.635269 0.000000
					}
				}
			}
		}
	}
	JOINT newVegas:Spine
	{
		OFFSET 0.000000 10.199997 -0.299500
		CHANNELS 3 Xrotation Yrotation Zrotation
		JOINT newVegas:Spine1
		{
			OFFSET 0.000000 11.900002 -1.516600
			CHANNELS 3 Xrotation Yrotation Zrotation
			JOINT newVegas:Spine2
			{
				OFFSET 0.000000 13.600006 -2.842500
				CHANNELS 3 Xrotation Yrotation Zrotation
				JOINT newVegas:Neck
				{
					OFFSET 0.000000 9.624100 -2.890100
					CHANNELS 3 Xrotation Yrotation Zrotation
					JOINT newVegas:Head
					{
						OFFSET 0.000000 14.068802 -1.351900
						CHANNELS 3 Xrotation Yrotation Zrotation
						JOINT newVegas:Hair_Back
						{
							OFFSET 0.000000 3.231903 -17.524799
							CHANNELS 3 Xrotation Yrotation Zrotation
							End Site
							{
								OFFSET 0.000000 19.849884 0.000000
							}
						}
						JOINT newVegas:Hair_Front
						{
							OFFSET 0.000000 31.260406 4.573800
							CHANNELS 3 Xrotation Yrotation Zrotation
							JOINT newVegas:Hair_Front1
							{
								OFFSET 0.000000 2.284103 11.993300
								CHANNELS 3 Xrotation Yrotation Zrotation
								JOINT newVegas:Hair_Front2
								{
									OFFSET 0.000000 2.284103 11.993300
									CHANNELS 3 Xrotation Yrotation Zrotation
									End Site
									{
										OFFSET 0.000000 12.208862 0.000000
									}
								}
							}
						}
						JOINT newVegas:Jowel
						{
							OFFSET 0.000000 -7.458206 6.864100
							CHANNELS 3 Xrotation Yrotation Zrotation
							End Site
							{
								OFFSET 0.000000 19.849884 0.000000
							}
						}
					}
				}
				JOINT newVegas:LeftShoulder
				{
					OFFSET 15.263000 10.923401 -0.547700
					CHANNELS 3 Xrotation Yrotation Zrotation
					JOINT newVegas:LeftArm
					{
						OFFSET 25.438599 -2.830597 -13.032500
						CHANNELS 3 Xrotation Yrotation Zrotation
						JOINT newVegas:LeftForeArm
						{
							OFFSET 29.960503 0.000000 0.000000
							CHANNELS 3 Xrotation Yrotation Zrotation
							JOINT newVegas:LeftHand
							{
								OFFSET 27.849251 0.000000 0.000000
								CHANNELS 3 Xrotation Yrotation Zrotation
								JOINT newVegas:LeftHandThumb1
								{
									OFFSET 4.487587 -3.305161 6.305391
									CHANNELS 3 Xrotation Yrotation Zrotation
									JOINT newVegas:LeftHandThumb2
									{
										OFFSET 5.480453 -3.164139 3.164143
										CHANNELS 3 Xrotation Yrotation Zrotation
										JOINT newVegas:LeftHandThumb3
										{
											OFFSET 5.159721 -2.978973 2.978967
											CHANNELS 3 Xrotation Yrotation Zrotation
											End Site
											{
												OFFSET 2.494507 5.926697 1.738678
											}
										}
									}
								}
								JOINT newVegas:LeftHandIndex1
								{
									OFFSET 18.578728 -0.527832 5.208049
									CHANNELS 3 Xrotation Yrotation Zrotation
									JOINT newVegas:LeftHandIndex2
									{
										OFFSET 3.192009 0.000000 0.000000
										CHANNELS 3 Xrotation Yrotation Zrotation
										JOINT newVegas:LeftHandIndex3
										{
											OFFSET 3.835129 0.000000 0.000000
											CHANNELS 3 Xrotation Yrotation Zrotation
											End Site
											{
												OFFSET -0.034599 3.816971 0.371180
											}
										}
									}
								}
								JOINT newVegas:LeftHandMiddle1
								{
									OFFSET 18.476105 0.000000 0.000000
									CHANNELS 3 Xrotation Yrotation Zrotation
									JOINT newVegas:LeftHandMiddle2
									{
										OFFSET 3.324875 0.000000 0.000000
										CHANNELS 3 Xrotation Yrotation Zrotation
										JOINT newVegas:LeftHandMiddle3
										{
											OFFSET 4.596550 0.000000 0.000000
											CHANNELS 3 Xrotation Yrotation Zrotation
											End Site
											{
												OFFSET 0.057701 4.578827 0.399218
											}
										}
									}
								}
								JOINT newVegas:LeftHandRing1
								{
									OFFSET 17.732719 0.121887 -4.201567
									CHANNELS 3 Xrotation Yrotation Zrotation
									JOINT newVegas:LeftHandRing2
									{
										OFFSET 2.733170 0.000000 0.000000
										CHANNELS 3 Xrotation Yrotation Zrotation
										JOINT newVegas:LeftHandRing3
										{
											OFFSET 3.178268 0.000000 0.000000
											CHANNELS 3 Xrotation Yrotation Zrotation
											End Site
											{
												OFFSET 0.119102 3.170624 0.185394
											}
										}
									}
								}
								JOINT newVegas:LeftHandPinky1
								{
									OFFSET 15.989624 -0.606689 -7.535461
									CHANNELS 3 Xrotation Yrotation Zrotation
									JOINT newVegas:LeftHandPinky2
									{
										OFFSET 2.538986 0.000000 0.000000
										CHANNELS 3 Xrotation Yrotation Zrotation
										JOINT newVegas:LeftHandPinky3
										{
											OFFSET 2.593102 0.000000 0.000000
											CHANNELS 3 Xrotation Yrotation Zrotation
											End Site
											{
												OFFSET -0.150902 2.584198 0.152708
											}
										}
									}
								}
							}
							JOINT newVegas:Left_Sleeve
							{
								OFFSET 0.267448 -0.649796 0.577675
								CHANNELS 3 Xrotation Yrotation Zrotation
								End Site
								{
									OFFSET 0.000000 15.991241 0.000000
								}
							}
							JOINT newVegas:Left_CapeC
							{
								OFFSET 15.715958 -8.608795 -6.935905
								CHANNELS 3 Xrotation Yrotation Zrotation
								JOINT newVegas:Left_CapeC1
								{
									OFFSET 0.000000 -8.688499 0.000000
									CHANNELS 3 Xrotation Yrotation Zrotation
									End Site
									{
										OFFSET 0.000000 8.688499 0.000000
									}
								}
							}
						}
						JOINT newVegas:Left_CapeB
						{
							OFFSET 26.118385 -8.608795 -7.079235
							CHANNELS 3 Xrotation Yrotation Zrotation
							JOINT newVegas:Left_CapeB1
							{
								OFFSET 0.000000 -8.688499 0.000000
								CHANNELS 3 Xrotation Yrotation Zrotation
								End Site
								{
									OFFSET 0.000000 8.688499 0.000000
								}
							}
						}
						JOINT newVegas:Left_CapeA
						{
							OFFSET 5.115639 -8.608795 -10.395809
							CHANNELS 3 Xrotation Yrotation Zrotation
							JOINT newVegas:Left_CapeA1
							{
								OFFSET 0.000000 -8.688499 0.000000
								CHANNELS 3 Xrotation Yrotation Zrotation
								End Site
								{
									OFFSET 0.000000 8.688499 0.000000
								}
							}
						}
					}
				}
				JOINT newVegas:RightShoulder
				{
					OFFSET -15.263000 10.923401 -0.547700
					CHANNELS 3 Xrotation Yrotation Zrotation
					JOINT newVegas:RightArm
					{
						OFFSET -25.438599 -2.830597 -13.032500
						CHANNELS 3 Xrotation Yrotation Zrotation
						JOINT newVegas:RightForeArm
						{
							OFFSET -29.960503 0.000000 0.000000
							CHANNELS 3 Xrotation Yrotation Zrotation
							JOINT newVegas:RightHand
							{
								OFFSET -27.849251 0.000000 0.000000
								CHANNELS 3 Xrotation Yrotation Zrotation
								JOINT newVegas:RightHandThumb1
								{
									OFFSET -4.487587 -3.305161 6.305391
									CHANNELS 3 Xrotation Yrotation Zrotation
									JOINT newVegas:RightHandThumb2
									{
										OFFSET -5.480453 -3.164139 3.164143
										CHANNELS 3 Xrotation Yrotation Zrotation
										JOINT newVegas:RightHandThumb3
										{
											OFFSET -5.159721 -2.978973 2.978967
											CHANNELS 3 Xrotation Yrotation Zrotation
											End Site
											{
												OFFSET -2.494507 5.926697 1.738678
											}
										}
									}
								}
								JOINT newVegas:RightHandIndex1
								{
									OFFSET -18.578728 -0.527832 5.208049
									CHANNELS 3 Xrotation Yrotation Zrotation
									JOINT newVegas:RightHandIndex2
									{
										OFFSET -3.192009 0.000000 0.000000
										CHANNELS 3 Xrotation Yrotation Zrotation
										JOINT newVegas:RightHandIndex3
										{
											OFFSET -3.835129 0.000000 0.000000
											CHANNELS 3 Xrotation Yrotation Zrotation
											End Site
											{
												OFFSET 0.034599 3.816971 0.371180
											}
										}
									}
								}
								JOINT newVegas:RightHandMiddle1
								{
									OFFSET -18.476105 0.000000 0.000000
									CHANNELS 3 Xrotation Yrotation Zrotation
									JOINT newVegas:RightHandMiddle2
									{
										OFFSET -3.324875 0.000000 0.000000
										CHANNELS 3 Xrotation Yrotation Zrotation
										JOINT newVegas:RightHandMiddle3
										{
											OFFSET -4.596550 0.000000 0.000000
											CHANNELS 3 Xrotation Yrotation Zrotation
											End Site
											{
												OFFSET -0.057701 4.578827 0.399218
											}
										}
									}
								}
								JOINT newVegas:RightHandRing1
								{
									OFFSET -17.732719 0.121887 -4.201567
									CHANNELS 3 Xrotation Yrotation Zrotation
									JOINT newVegas:RightHandRing2
									{
										OFFSET -2.733170 0.000000 0.000000
										CHANNELS 3 Xrotation Yrotation Zrotation
										JOINT newVegas:RightHandRing3
										{
											OFFSET -3.178268 0.000000 0.000000
											CHANNELS 3 Xrotation Yrotation Zrotation
											End Site
											{
												OFFSET -0.119102 3.170624 0.185394
											}
										}
									}
								}
								JOINT newVegas:RightHandPinky1
								{
									OFFSET -15.989624 -0.606689 -7.535461
									CHANNELS 3 Xrotation Yrotation Zrotation
									JOINT newVegas:RightHandPinky2
									{
										OFFSET -2.538986 0.000000 0.000000
										CHANNELS 3 Xrotation Yrotation Zrotation
										JOINT newVegas:RightHandPinky3
										{
											OFFSET -2.593102 0.000000 0.000000
											CHANNELS 3 Xrotation Yrotation Zrotation
											End Site
											{
												OFFSET 0.150902 2.584198 0.152708
											}
										}
									}
								}
							}
							JOINT newVegas:Right_CapeC
							{
								OFFSET -15.715958 -8.608795 -6.935905
								CHANNELS 3 Xrotation Yrotation Zrotation
								JOINT newVegas:Right_CapeC1
								{
									OFFSET 0.000000 -8.688499 0.000000
									CHANNELS 3 Xrotation Yrotation Zrotation
									End Site
									{
										OFFSET 0.000000 8.688499 0.000000
									}
								}
							}
							JOINT newVegas:Right_Sleeve
							{
								OFFSET -0.267448 -0.649994 0.577675
								CHANNELS 3 Xrotation Yrotation Zrotation
								End Site
								{
									OFFSET 0.000000 15.991302 0.000000
								}
							}
						}
						JOINT newVegas:Right_CapeA
						{
							OFFSET -5.115540 -8.608795 -10.395824
							CHANNELS 3 Xrotation Yrotation Zrotation
							JOINT newVegas:Right_CapeA1
							{
								OFFSET 0.000000 -8.688499 0.000000
								CHANNELS 3 Xrotation Yrotation Zrotation
								End Site
								{
									OFFSET 0.000000 8.688499 0.000000
								}
							}
						}
						JOINT newVegas:Right_CapeB
						{
							OFFSET -26.118187 -8.608795 -7.079266
							CHANNELS 3 Xrotation Yrotation Zrotation
							JOINT newVegas:Right_CapeB1
							{
								OFFSET 0.000000 -8.688499 0.000000
								CHANNELS 3 Xrotation Yrotation Zrotation
								End Site
								{
									OFFSET 0.000000 8.688499 0.000000
								}
							}
						}
					}
				}
				JOINT newVegas:Left_Collar
				{
					OFFSET 18.625099 8.655502 8.828100
					CHANNELS 3 Xrotation Yrotation Zrotation
					JOINT newVegas:Left_Collar1
					{
						OFFSET 14.783401 10.540405 -1.259500
						CHANNELS 3 Xrotation Yrotation Zrotation
						End Site
						{
							OFFSET 0.000000 18.199875 0.000000
						}
					}
				}
				JOINT newVegas:Collar_Back
				{
					OFFSET 0.000000 15.630707 -20.132601
					CHANNELS 3 Xrotation Yrotation Zrotation
					End Site
					{
						OFFSET 0.000000 22.523010 0.000000
					}
				}
				JOINT newVegas:Left_Peck
				{
					OFFSET 17.239599 -5.132599 25.482599
					CHANNELS 3 Xrotation Yrotation Zrotation
					End Site
					{
						OFFSET 0.000000 22.523010 0.000000
					}
				}
				JOINT newVegas:Right_Peck
				{
					OFFSET -17.239599 -5.132202 25.482599
					CHANNELS 3 Xrotation Yrotation Zrotation
					End Site
					{
						OFFSET 0.000000 22.523010 0.000000
					}
				}
				JOINT newVegas:Right_Collar
				{
					OFFSET -18.625099 8.655792 8.828100
					CHANNELS 3 Xrotation Yrotation Zrotation
					JOINT newVegas:Right_Collar1
					{
						OFFSET -14.783401 10.539993 -1.259500
						CHANNELS 3 Xrotation Yrotation Zrotation
						End Site
						{
							OFFSET 0.000000 18.199631 0.000000
						}
					}
				}
			}
		}
		JOINT newVegas:Belly
		{
			OFFSET 0.000000 -6.540398 9.014299
			CHANNELS 3 Xrotation Yrotation Zrotation
			End Site
			{
				OFFSET 0.000000 11.566666 0.000000
			}
		}
	}
	JOINT newVegas:ElvisFacialAnim_Joint
	{
		OFFSET 1.000000 -95.330101 -8.825800
		CHANNELS 3 Xrotation Yrotation Zrotation
		End Site
		{
			OFFSET 0.000000 35.315800 0.000000
		}
	}
}
MOTION
Frames: 4
Frame Time: 0.033333
-2.569073 94.350662 9.152514 2.726934 9.428496 3.014519 0.000000 0.000001 0.000000 -5.500841 2.581047 -0.411953 9.416677 -6.753591 0.346363 -6.720317 0.260539 -1.748437 0.000000 -0.000000 0.000000 -0.000000 -0.000000 -0.000000 -4.662307 -12.183975 -1.411599 19.371537 -6.418678 -0.673718 -18.328732 0.339825 0.268311 -0.000000 0.000000 -0.000000 0.000003 -0.000000 -0.000000 1.257283 0.256011 0.292998 2.534239 0.533149 0.517163 2.534240 0.533152 0.517164 -0.042994 -0.417152 -2.183520 -0.042985 -0.417146 -2.183520 0.000001 0.000000 -0.000000 -0.042989 -0.417142 -2.183521 -0.042922 -0.417149 -2.183520 -0.000000 0.000000 0.000000 0.000001 0.000000 -0.000000 0.122993 -11.365372 -16.406820 -2.827983 0.237821 -63.960480 0.000005 -16.106184 0.000018 23.126575 -1.556506 -0.974352 5.068621 11.450804 10.333377 8.697597 24.948605 -3.044630 0.000002 -0.000004 -0.000001 -2.545638 -3.826578 -25.809941 0.042858 0.768638 -6.382785 -0.000003 -0.000001 0.000001 -5.544646 -7.026003 -32.570071 0.401316 2.320525 -19.620483 -0.000002 0.000002 0.000003 -1.020527 0.498249 -33.384824 0.545641 2.690916 -22.920860 -0.000001 -0.000002 -0.000002 8.198490 10.868743 -45.539142 0.944690 -0.595209 -30.577398 0.000001 -0.000003 -0.000000 0.000000 -0.000000 0.000000 0.000000 -0.000000 0.000000 0.000000 -0.000000 0.000000 0.000000 0.000000 0.000002 0.000000 0.000000 0.000001 0.000000 0.000000 0.000002 0.000000 -0.000000 0.000002 2.252011 13.138788 -6.647819 -44.978527 45.116675 25.945684 0.000000 20.936027 -0.000005 16.770913 15.853878 -6.248248 -9.143953 -11.359185 -9.007335 4.637844 -8.635912 -0.225284 0.000001 -0.000000 -0.000001 -0.111540 2.712943 2.424127 0.278535 -1.951998 16.240274 -0.000000 -0.000001 -0.000000 -0.096739 0.489513 6.389262 0.319926 -2.088759 17.414119 0.000000 0.000000 0.000000 -0.173918 -5.208162 -2.204821 1.325619 -4.088729 35.913691 -0.000001 -0.000001 -0.000000 -2.591997 -10.552533 -13.727067 0.355651 -2.199355 18.369118 0.000001 -0.000000 0.000002 0.000001 0.000001 -0.000001 -0.000000 0.000000 -0.000000 0.000001 0.000001 -0.000001 0.000001 -0.000001 -0.000000 0.000001 -0.000001 -0.000000 0.000001 -0.000001 -0.000000 0.000001 -0.000001 -0.000000 0.000000 0.000001 -0.000000 0.000000 0.000001 -0.000000 0.000000 0.000001 -0.000000 0.000000 0.000001 -0.000000 0.000000 0.000001 -0.000000 0.000000 0.000001 -0.000000 0.000000 0.000001 -0.000000 0.000001 0.000001 -0.000000 0.000000 0.000001 0.000000 
-2.591230 94.349197 9.197910 2.736323 9.222951 3.001487 -0.000000 0.000000 -0.000000 -5.418203 2.607032 -0.390887 9.433660 -6.591872 0.358672 -6.812835 0.262061 -1.758623 -0.000000 -0.000000 -0.000000 -0.000000 -0.000000 0.000000 -4.669969 -12.225109 -1.413392 19.352183 -6.168662 -0.658140 -18.306140 0.342774 0.195346 0.000000 -0.000001 -0.000000 -0.000001 0.000001 -0.000000 1.263783 0.251483 0.293645 2.546552 0.520506 0.515658 2.546550 0.520500 0.515656 -0.013973 -0.451772 -2.152997 -0.013965 -0.451777 -2.152998 0.000000 0.000001 0.000000 -0.013971 -0.451774 -2.152998 -0.013976 -0.451776 -2.153000 0.000000 0.000000 -0.000000 0.000000 0.000001 0.000000 0.135159 -11.362338 -16.338424 -2.820195 0.307538 -64.004726 0.000002 -16.147868 -0.000011 23.125658 -1.617565 -0.874296 5.064257 11.436880 10.334122 8.696806 24.943152 -3.044732 0.000007 -0.000006 -0.000002 -2.548219 -3.819333 -25.851322 0.048642 0.818659 -6.800055 0.000001 -0.000001 -0.000001 -5.571490 -7.052815 -32.614099 0.401228 2.320312 -19.618569 0.000002 0.000001 -0.000002 -1.023732 0.491826 -33.372854 0.545683 2.691018 -22.921813 -0.000002 -0.000002 0.000000 8.202540 10.873145 -45.536758 0.943533 -0.597169 -30.558468 -0.000000 0.000002 -0.000001 0.000000 -0.000000 0.000000 0.000000 -0.000000 0.000000 0.000000 -0.000000 0.000000 0.000000 0.000002 0.000001 0.000000 0.000002 0.000001 0.000000 0.000002 0.000001 0.000000 0.000002 0.000001 2.232130 12.979386 -6.715561 -44.131150 44.612272 25.098722 0.000004 21.827756 0.000004 17.512275 16.536947 -7.027857 -9.111963 -11.268163 -8.893641 4.637915 -8.636152 -0.225282 0.000001 -0.000001 0.000001 -0.098682 2.706152 2.178732 0.274356 -1.937586 16.116984 0.000000 -0.000000 -0.000000 -0.088118 0.517557 5.856843 0.319440 -2.087196 17.400621 -0.000000 -0.000001 -0.000001 -0.161762 -5.321559 -2.046531 1.345811 -4.116408 36.195887 -0.000001 0.000001 0.000001 -2.374285 -10.436845 -12.825627 0.373760 -2.253112 18.835350 0.000001 -0.000000 -0.000001 -0.000001 -0.000000 0.000000 -0.000001 -0.000000 -0.000001 -0.000001 0.000000 0.000001 -0.000001 -0.000001 0.000000 -0.000001 -0.000001 0.000000 -0.000001 -0.000001 0.000000 -0.000001 -0.000001 0.000001 0.000001 0.000000 0.000000 0.000001 0.000000 0.000000 0.000001 0.000000 0.000000 0.000001 0.000000 0.000000 0.000001 0.000000 0.000000 0.000001 0.000000 0.000000 0.000001 0.000000 0.000000 -0.000000 0.000000 0.000000 -0.000000 0.000000 -0.000000 
-2.617944 94.349945 9.247641 2.749912 9.016285 2.988657 -0.000000 -0.000001 0.000000 -5.310653 2.636394 -0.369655 9.403962 -6.428400 0.371759 -6.891443 0.263317 -1.769787 -0.000000 -0.000000 -0.000000 -0.000000 0.000001 0.000000 -4.667136 -12.275296 -1.408789 19.308544 -5.910236 -0.646536 -18.274468 0.348422 0.118654 0.000000 -0.000001 0.000000 0.000000 0.000000 -0.000000 1.268549 0.243178 0.293824 2.553021 0.501658 0.509824 2.553021 0.501656 0.509825 0.015008 -0.490473 -2.120183 0.015000 -0.490483 -2.120152 -0.000000 -0.000000 -0.000000 0.015007 -0.490414 -2.120195 0.015005 -0.490476 -2.120184 -0.000001 0.000000 0.000001 -0.000000 -0.000000 0.000000 0.141240 -11.393586 -16.276788 -2.775628 0.268208 -64.021194 -0.000006 -16.212630 -0.000039 23.203148 -1.677748 -0.725923 5.059852 11.420127 10.334463 8.690726 24.914319 -3.045131 0.000003 -0.000004 -0.000001 -2.543240 -3.814409 -25.832484 0.047101 0.805704 -6.692010 -0.000002 0.000000 0.000003 -5.573520 -7.048996 -32.631082 0.401025 2.319728 -19.613404 0.000001 -0.000000 -0.000001 -1.031833 0.474077 -33.331484 0.545662 2.690961 -22.921282 0.000000 -0.000001 0.000006 8.192084 10.874379 -45.481448 0.944021 -0.596348 -30.566425 0.000002 0.000002 0.000000 0.000000 0.000000 -0.000001 0.000000 0.000000 -0.000001 0.000000 0.000000 -0.000001 -0.000000 -0.000001 0.000000 -0.000000 -0.000001 0.000000 -0.000000 -0.000001 0.000000 0.000000 -0.000001 0.000000 2.207434 12.808465 -6.750627 -43.451143 44.254575 24.330433 0.000007 22.396276 -0.000002 18.377947 17.021661 -7.525307 -9.065455 -11.223407 -8.844348 4.637987 -8.636330 -0.225279 0.000001 0.000000 0.000001 -0.101849 2.679341 2.257813 0.271666 -1.928277 16.037189 -0.000000 0.000002 -0.000000 -0.080301 0.449734 5.805410 0.317804 -2.082002 17.355873 0.000000 -0.000002 -0.000000 -0.154975 -5.405004 -1.956103 1.353837 -4.127325 36.307575 -0.000001 -0.000001 -0.000003 -2.264256 -10.194063 -12.525925 0.389020 -2.297302 19.219497 -0.000001 -0.000000 -0.000000 0.000002 -0.000000 0.000000 0.000000 -0.000000 -0.000001 0.000002 0.000000 -0.000000 -0.000002 -0.000002 -0.000001 -0.000001 -0.000002 -0.000001 -0.000002 -0.000002 -0.000001 -0.000001 -0.000002 -0.000001 0.000001 -0.000000 0.000000 0.000001 -0.000000 0.000000 0.000001 -0.000000 0.000000 0.000001 -0.000000 0.000000 0.000001 -0.000000 0.000000 0.000001 -0.000000 0.000000 0.000001 -0.000000 0.000000 -0.000000 0.000001 -0.000000 -0.000000 -0.000001 0.000000 
-2.647154 94.349075 9.300655 2.774565 8.804093 2.973177 0.000000 -0.000000 -0.000000 -5.249931 2.683806 -0.344902 9.440280 -6.273403 0.388052 -6.981978 0.265141 -1.780599 0.000000 0.000001 -0.000000 0.000001 0.000000 0.000000 -4.674280 -12.330181 -1.408307 19.266253 -5.637925 -0.622043 -18.244161 0.354687 0.031393 -0.000000 -0.000000 -0.000000 -0.000000 -0.000000 0.000000 1.270314 0.234301 0.294488 2.552289 0.485728 0.499725 2.552286 0.485726 0.499723 0.040765 -0.531676 -2.088631 0.040770 -0.531677 -2.088633 -0.000000 0.000000 -0.000000 0.040835 -0.531670 -2.088633 0.040759 -0.531685 -2.088629 -0.000001 -0.000000 -0.000000 -0.000000 0.000000 -0.000000 0.135997 -11.451691 -16.240564 -2.708047 0.166532 -64.021248 -0.000001 -16.285831 0.000023 23.383356 -1.660188 -0.784528 5.056207 11.405867 10.334408 8.690618 24.913147 -3.045299 0.000000 -0.000002 -0.000005 -2.543296 -3.772853 -25.967529 0.042263 0.763262 -6.338061 -0.000000 0.000000 -0.000000 -5.573852 -7.054328 -32.619976 0.400885 2.319357 -19.610163 0.000001 0.000000 -0.000002 -1.032706 0.476314 -33.360048 0.545591 2.690814 -22.919820 0.000003 -0.000000 -0.000002 8.189705 10.873040 -45.476653 0.940905 -0.601625 -30.515660 0.000001 -0.000005 -0.000003 0.000000 0.000000 0.000001 0.000000 0.000000 0.000001 0.000000 0.000000 0.000001 0.000000 0.000001 0.000001 0.000000 0.000001 0.000001 0.000000 0.000001 0.000001 0.000000 0.000001 0.000001 2.173064 12.601458 -6.755064 -43.021729 43.954142 23.750079 0.000000 22.683789 0.000003 19.172469 17.385512 -7.778292 -8.984801 -11.267999 -8.849643 4.638062 -8.636515 -0.225247 0.000001 -0.000003 0.000001 -0.116474 2.635302 2.576851 0.270205 -1.923181 15.993684 0.000000 -0.000001 -0.000000 -0.072848 0.301741 6.209861 0.315462 -2.074499 17.291244 -0.000000 -0.000001 -0.000001 -0.148936 -5.462245 -1.881366 1.359355 -4.134788 36.384158 -0.000000 0.000002 -0.000002 -2.257159 -9.827941 -12.839302 0.396850 -2.319668 19.414234 0.000001 -0.000004 0.000000 0.000001 0.000000 0.000000 0.000001 0.000001 -0.000000 0.000001 0.000000 0.000001 -0.000001 -0.000001 0.000001 -0.000000 -0.000001 0.000001 -0.000001 -0.000001 0.000001 -0.000001 -0.000001 0.000001 0.000001 0.000001 0.000001 0.000001 0.000001 0.000001 0.000001 0.000001 0.000001 0.000001 0.000001 0.000001 0.000001 0.000001 0.000001 0.000001 0.000001 0.000001 0.000001 0.000001 0.000001 -0.000000 0.000001 -0.000000 0.000000 -0.000000 -0.000000 
